<svg height="682pt" viewBox="-24 -21 682 682.6643" width="682pt" xmlns="http://www.w3.org/2000/svg"><path d="m612.753906 522.664062h-253v-31.601562c5.578125.066406 11.234375.148438 16.691406.148438 69.335938 0 127.191407-7.464844 152.171876-75.210938h12.472656c17.671875 0 31.996094-14.324219 31.996094-32v-10.664062c0-17.675782-14.324219-32.003907-31.996094-32.003907h-181.335938v-48.425781c13.558594-12.09375 21.320313-29.398438 21.335938-47.574219 0-5.886719-4.78125-10.664062-10.667969-10.664062v-74.664063c0-5.890625 4.773437-10.664062 10.667969-10.664062 5.890625 0 10.664062 4.773437 10.664062 10.664062v10.667969c0 5.886719 4.777344 10.664063 10.667969 10.664063h85.332031c5.890625 0 10.664063-4.777344 10.664063-10.664063v-10.667969c.035156-37.136718-17.527344-72.089844-47.34375-94.230468-29.816407-22.132813-68.359375-28.832032-103.894531-18.054688-30.007813-40.796875-82.847657-57.675781-130.949219-41.835938-48.105469 15.839844-80.570313 60.808594-80.472657 111.453126v10.667968c0 5.890625 4.773438 10.664063 10.667969 10.664063h85.332031c5.890626 0 10.667969-4.773438 10.667969-10.664063v-10.667968c0-5.886719 4.773438-10.664063 10.664063-10.664063s10.667968 4.777344 10.667968 10.664063v117.332031c-5.894531 0-10.667968 4.777343-10.667968 10.664062.011718 18.175781 7.773437 35.480469 21.332031 47.574219v48.425781h-181.332031c-17.671875 0-31.996094 14.328125-31.996094 32.003907v10.664062c0 17.675781 14.324219 32 31.996094 32h12.523437c26.945313 73.078125 92.300781 76 168.808594 75.101562v31.5625h-253c-6.566406 0-12.773437 3.023438-16.816406 8.203126-4.046875 5.175781-5.480469 11.929687-3.886719 18.304687l5.332031 21.335937c1.785157 7.117188 7.105469 12.816407 14.082031 15.089844l7.464844 37.261719c1.996094 9.960937 10.746094 17.132813 20.90625 17.136719h537.167969c10.167969 0 18.921875-7.171875 20.917969-17.136719l7.46875-37.269531c6.972656-2.277344 12.289062-7.96875 14.074218-15.082032l5.339844-21.335937c1.589844-6.375.15625-13.128906-3.886718-18.308594-4.050782-5.175781-10.261719-8.203125-16.832032-8.199219zm-336.820312-266.660156h82.304687c-4.789062 18.816406-21.730469 31.988282-41.152343 31.988282-19.417969 0-36.359376-13.171876-41.152344-31.988282zm105.15625-128c-17.675782 0-32 14.328125-32 32v74.664063h-21.332032v-74.664063c0-29.453125 23.875-53.332031 53.332032-53.332031 29.453125 0 53.332031 23.878906 53.332031 53.332031h-21.335937c0-17.671875-14.324219-32-31.996094-32zm-128-106.667968c28.546875-.035157 55.617187 12.691406 73.800781 34.703124-6.390625 3.347657-12.460937 7.273438-18.132813 11.730469-20.578124-23.140625-53.3125-31.164062-82.261718-20.152343-28.945313 11.003906-48.074219 38.753906-48.074219 69.71875h-21.332031c.066406-52.992188 43.007812-95.929688 96-96zm0 64c-17.671875 0-31.996094 14.328124-31.996094 32h-21.339844c-.039062-22.261719 13.769532-42.195313 34.625-49.976563 20.859375-7.78125 44.347656-1.769531 58.898438 15.074219-4.929688 5.582031-9.320313 11.621094-13.117188 18.027344-5.800781-9.378907-16.042968-15.101563-27.070312-15.125zm32 117.332031v-42.664063c0-53.019531 42.980468-96 96-96 53.019531 0 95.996094 42.980469 95.996094 96h-21.332032c.0625-24.539062-11.964844-47.53125-32.152344-61.476562-20.191406-13.945313-45.957031-17.046875-68.882812-8.296875-.257812.085937-.515625.183593-.765625.289062-28.625 11.1875-47.480469 38.753907-47.53125 69.484375v74.664063h-21.332031zm10.664062 102.933593c13.789063 4.980469 28.882813 4.980469 42.667969 0v35.730469h-42.667969zm-213.328125 78.398438v-10.664062c0-5.894532 4.777344-10.667969 10.664063-10.667969h448c5.886718 0 10.664062 4.773437 10.664062 10.667969v10.664062c0 5.890625-4.777344 10.667969-10.664062 10.667969h-448c-5.886719 0-10.664063-4.777344-10.664063-10.667969zm46.109375 32h377.105469c-24.894531 55.03125-80.785156 54.679688-156.136719 53.632812-.144531 0-.269531-.085937-.414062-.085937-.152344 0-.234375.0625-.363282.078125h-.480468c-20.34375-.28125-41.972656-.28125-62.316406 0h-.476563c-.128906 0-.234375-.078125-.363281-.078125-.132813 0-.269532.078125-.414063.085937-75.316406 1.011719-131.246093 1.398438-156.140625-53.632812zm167.21875 74.878906c14.15625-.128906 28.511719-.128906 42.667969 0v31.785156h-42.667969zm317 53.117188-5.332031 21.335937h-580.667969l-5.332031-21.335937zm-27.070312 74.667968h-537.179688l-6.398437-31.996093h549.96875l-6.402344 31.996093zm0 0"/><path d="m157.089844 202.667969c0-23.566407-19.101563-42.664063-42.667969-42.664063-23.5625 0-42.664063 19.097656-42.664063 42.664063 0 23.5625 19.101563 42.664062 42.664063 42.664062 23.566406 0 42.667969-19.101562 42.667969-42.664062zm-64 0c0-11.78125 9.550781-21.332031 21.332031-21.332031 11.785156 0 21.335937 9.550781 21.335937 21.332031s-9.550781 21.332031-21.335937 21.332031c-11.78125 0-21.332031-9.550781-21.332031-21.332031zm0 0"/><path d="m466.421875 266.671875c0 23.558594 19.101563 42.664063 42.664063 42.664063 23.566406 0 42.667968-19.105469 42.667968-42.664063 0-23.566406-19.101562-42.671875-42.667968-42.671875-23.5625 0-42.664063 19.105469-42.664063 42.671875zm42.664063-21.339844c11.785156 0 21.335937 9.558594 21.335937 21.339844s-9.550781 21.332031-21.335937 21.332031c-11.78125 0-21.332032-9.550781-21.332032-21.332031s9.550782-21.339844 21.332032-21.339844zm0 0"/><path d="m231.757812 277.335938c0-17.671876-14.328124-32.003907-32.003906-32.003907-17.671875 0-31.996094 14.332031-31.996094 32.003907 0 17.675781 14.324219 32 31.996094 32 17.675782 0 32.003906-14.324219 32.003906-32zm-42.667968 0c0-5.890626 4.777344-10.664063 10.664062-10.664063 5.894532 0 10.667969 4.773437 10.667969 10.664063 0 5.890624-4.773437 10.667968-10.667969 10.667968-5.886718 0-10.664062-4.777344-10.664062-10.667968zm0 0"/></svg>